HIERARCHY
ROOT hip
{
  OFFSET 0 0 0
  CHANNELS 6 Xposition Yposition Zposition Zrotation Yrotation Xrotation
  JOINT abdomen
  {
    OFFSET 0 20.6881 -0.73152
    CHANNELS 3 Zrotation Xrotation Yrotation
    JOINT chest
    {
      OFFSET 0 11.7043 -0.48768
      CHANNELS 3 Zrotation Xrotation Yrotation
      JOINT neck
      {
        OFFSET 0 22.1894 -2.19456
        CHANNELS 3 Zrotation Xrotation Yrotation
        JOINT head
        {
          OFFSET -0.24384 7.07133 1.2192
          CHANNELS 3 Zrotation Xrotation Yrotation
          JOINT leftEye
          {
            OFFSET 4.14528 8.04674 8.04672
            CHANNELS 3 Zrotation Xrotation Yrotation
            End Site
            {
              OFFSET 1 0 0
            }
          }
          JOINT rightEye
          {
            OFFSET -3.6576 8.04674 8.04672
            CHANNELS 3 Zrotation Xrotation Yrotation
            End Site
            {
              OFFSET 1 0 0
            }
          }
        }
      }
      JOINT rCollar
      {
        OFFSET -2.68224 19.2634 -4.8768
        CHANNELS 3 Zrotation Xrotation Yrotation
        JOINT rShldr
        {
          OFFSET -8.77824 -1.95073 1.46304
          CHANNELS 3 Zrotation Xrotation Yrotation
          JOINT rForeArm
          {
            OFFSET -28.1742 -1.7115 0.48768
            CHANNELS 3 Zrotation Xrotation Yrotation
            JOINT rHand
            {
              OFFSET -22.5879 0.773209 7.07136
              CHANNELS 3 Zrotation Xrotation Yrotation
              JOINT rThumb1
              {
                OFFSET -1.2192 -0.487915 3.41376
                CHANNELS 3 Zrotation Xrotation Yrotation
                JOINT rThumb2
                {
                  OFFSET -3.37035 -0.52449 3.41376
                  CHANNELS 3 Zrotation Xrotation Yrotation
                  End Site
                  {
                    OFFSET -1.78271 -1.18214 1.43049
                  }
                }
              }
              JOINT rIndex1
              {
                OFFSET -7.75947 0.938293 5.60832
                CHANNELS 3 Zrotation Xrotation Yrotation
                JOINT rIndex2
                {
                  OFFSET -2.54057 -0.884171 1.56538
                  CHANNELS 3 Zrotation Xrotation Yrotation
                  End Site
                  {
                    OFFSET -1.62519 -0.234802 1.16502
                  }
                }
              }
              JOINT rMid1
              {
                OFFSET -8.24714 1.18213 3.41376
                CHANNELS 3 Zrotation Xrotation Yrotation
                JOINT rMid2
                {
                  OFFSET -3.10165 -0.590103 1.0647
                  CHANNELS 3 Zrotation Xrotation Yrotation
                  End Site
                  {
                    OFFSET -2.48547 -0.328903 0.83742
                  }
                }
              }
              JOINT rRing1
              {
                OFFSET -8.82822 0.546677 1.51678
                CHANNELS 3 Zrotation Xrotation Yrotation
                JOINT rRing2
                {
                  OFFSET -2.60934 -0.819778 -0.0198488
                  CHANNELS 3 Zrotation Xrotation Yrotation
                  End Site
                  {
                    OFFSET -2.33842 -0.294052 0.168128
                  }
                }
              }
              JOINT rPinky1
              {
                OFFSET -8.27202 -0.0477905 -0.4584
                CHANNELS 3 Zrotation Xrotation Yrotation
                JOINT rPinky2
                {
                  OFFSET -1.82734 -0.647385 -0.700984
                  CHANNELS 3 Zrotation Xrotation Yrotation
                  End Site
                  {
                    OFFSET -1.69225 -0.51767 -0.607171
                  }
                }
              }
            }
          }
        }
      }
      JOINT lCollar
      {
        OFFSET 2.68224 19.2634 -4.8768
        CHANNELS 3 Zrotation Xrotation Yrotation
        JOINT lShldr
        {
          OFFSET 8.77824 -1.95073 1.46304
          CHANNELS 3 Zrotation Xrotation Yrotation
          JOINT lForeArm
          {
            OFFSET 28.1742 -1.7115 0.48768
            CHANNELS 3 Zrotation Xrotation Yrotation
            JOINT lHand
            {
              OFFSET 22.5879 0.773209 7.07136
              CHANNELS 3 Zrotation Xrotation Yrotation
              JOINT lThumb1
              {
                OFFSET 1.2192 -0.487915 3.41376
                CHANNELS 3 Zrotation Xrotation Yrotation
                JOINT lThumb2
                {
                  OFFSET 3.37035 -0.52449 3.41376
                  CHANNELS 3 Zrotation Xrotation Yrotation
                  End Site
                  {
                    OFFSET 1.78271 -1.18214 1.43049
                  }
                }
              }
              JOINT lIndex1
              {
                OFFSET 7.75947 0.938293 5.60832
                CHANNELS 3 Zrotation Xrotation Yrotation
                JOINT lIndex2
                {
                  OFFSET 2.54057 -0.884171 1.56538
                  CHANNELS 3 Zrotation Xrotation Yrotation
                  End Site
                  {
                    OFFSET 1.62519 -0.234802 1.16502
                  }
                }
              }
              JOINT lMid1
              {
                OFFSET 8.24714 1.18213 3.41376
                CHANNELS 3 Zrotation Xrotation Yrotation
                JOINT lMid2
                {
                  OFFSET 3.10165 -0.590103 1.0647
                  CHANNELS 3 Zrotation Xrotation Yrotation
                  End Site
                  {
                    OFFSET 2.48547 -0.328903 0.83742
                  }
                }
              }
              JOINT lRing1
              {
                OFFSET 8.82822 0.546677 1.51678
                CHANNELS 3 Zrotation Xrotation Yrotation
                JOINT lRing2
                {
                  OFFSET 2.60934 -0.819778 -0.0198488
                  CHANNELS 3 Zrotation Xrotation Yrotation
                  End Site
                  {
                    OFFSET 2.33842 -0.294052 0.168128
                  }
                }
              }
              JOINT lPinky1
              {
                OFFSET 8.27202 -0.0477905 -0.4584
                CHANNELS 3 Zrotation Xrotation Yrotation
                JOINT lPinky2
                {
                  OFFSET 1.82734 -0.647385 -0.700984
                  CHANNELS 3 Zrotation Xrotation Yrotation
                  End Site
                  {
                    OFFSET 1.69225 -0.51767 -0.607171
                  }
                }
              }
            }
          }
        }
      }
    }
  }
  JOINT rButtock
  {
    OFFSET -8.77824 4.35084 1.2192
    CHANNELS 3 Zrotation Xrotation Yrotation
    JOINT rThigh
    {
      OFFSET 0 -1.70687 -2.19456
      CHANNELS 3 Zrotation Xrotation Yrotation
      JOINT rShin
      {
        OFFSET 0 -36.8199 0.73152
        CHANNELS 3 Zrotation Xrotation Yrotation
        JOINT rFoot
        {
          OFFSET 0.73152 -45.1104 -5.12064
          CHANNELS 3 Zrotation Xrotation Yrotation
          End Site
          {
            OFFSET -1.1221 -3.69964 12.103
          }
        }
      }
    }
  }
  JOINT lButtock
  {
    OFFSET 8.77824 4.35084 1.2192
    CHANNELS 3 Zrotation Xrotation Yrotation
    JOINT lThigh
    {
      OFFSET 0 -1.70687 -2.19456
      CHANNELS 3 Zrotation Xrotation Yrotation
      JOINT lShin
      {
        OFFSET 0 -36.8199 0.73152
        CHANNELS 3 Zrotation Xrotation Yrotation
        JOINT lFoot
        {
          OFFSET -0.73152 -45.1104 -5.12064
          CHANNELS 3 Zrotation Xrotation Yrotation
          End Site
          {
            OFFSET 1.1221 -3.69964 12.103
          }
        }
      }
    }
  }
}
MOTION
Frames: 5
Frame Time:	0.06666666
21.7083 82.7451 -13.1798 -191.527 49.0674 -190.601 -13.8567 9.68441 -1.60457 1.59741 -5.74682 -0.683137 -11.0097 4.99842 -7.92094 16.1063 -8.71991 -11.9084 -0.0 0.0 0.0 -0.0 0.0 0.0 -5.64459e-14 -3.49372e-13 8.7592e-13 82.027 22.0229 -4.10667 -11.5109 -5.11162 20.6668 -0.323526 15.9826 2.30686 -5.12433e-09 1.90145e-09 3.96116e-09 -8.79836e-09 3.30025e-09 6.91449e-09 -5.12433e-09 1.90145e-09 3.96115e-09 7.73091 5.47488 0.417314 -5.12433e-09 1.90145e-09 3.96116e-09 2.90554 0.965183 0.102902 -5.12433e-09 1.90145e-09 3.96116e-09 10.2786 0.731801 0.0259123 -5.12433e-09 1.90145e-09 3.96118e-09 2.22167 -0.733487 -0.20892 -5.65079e-14 -3.49381e-13 8.75584e-13 -71.9477 31.1078 -11.3158 15.4382 -8.17373 -28.4991 0.0487233 -6.26876 0.884612 -2.67027e-09 4.11659e-09 -5.22197e-10 -4.6224e-09 7.11799e-09 -9.08268e-10 -2.67027e-09 4.11659e-09 -5.22181e-10 -7.73091 5.47488 -0.417314 -2.67027e-09 4.11659e-09 -5.2219e-10 -2.90554 0.965183 -0.102902 -2.67028e-09 4.11659e-09 -5.22194e-10 -10.2786 0.731801 -0.0259123 -2.67027e-09 4.11659e-09 -5.22201e-10 -2.22167 -0.733487 0.20892 -2.03217e-16 0.0 -3.88251e-19 -7.35535 -31.2927 9.45373 -0.104468 24.9231 0.987576 -4.96813 -7.56513 -19.5616 2.03217e-16 0.0 3.88251e-19 -16.3007 8.05073 -5.6135 -0.0816973 13.907 -0.989927 1.42762 -8.05011 6.06902
23.1773 82.8513 -14.3536 -192.287 47.9983 -191.106 -14.6509 9.29829 -1.95196 1.75854 -5.54963 -0.79176 -11.0692 5.17233 -8.02479 16.3251 -8.60671 -12.11 -0.0 0.0 0.0 -0.0 0.0 0.0 6.16741e-14 8.74847e-15 7.41268e-13 82.4057 22.0029 -4.78725 -11.6055 -5.17585 20.849 -0.299681 15.3921 2.21736 -4.63543e-09 1.59369e-09 3.15758e-09 -7.96495e-09 2.76661e-09 5.51945e-09 -4.63543e-09 1.59368e-09 3.15757e-09 7.73091 5.47488 0.417314 -4.63543e-09 1.59369e-09 3.15758e-09 2.90554 0.965183 0.102902 -4.63543e-09 1.59369e-09 3.15759e-09 10.2786 0.731801 0.0259123 -4.63544e-09 1.59369e-09 3.15759e-09 2.22167 -0.733487 -0.20892 6.16261e-14 8.74381e-15 7.4102e-13 -71.8993 31.482 -11.7415 15.6656 -8.38016 -28.9697 0.0449181 -6.03764 0.851721 -2.87067e-09 3.51356e-09 -4.4342e-10 -4.96727e-09 6.07523e-09 -7.72381e-10 -2.87067e-09 3.51355e-09 -4.43411e-10 -7.73091 5.47488 -0.417314 -2.87067e-09 3.51355e-09 -4.43414e-10 -2.90554 0.965183 -0.102902 -2.87067e-09 3.51355e-09 -4.43418e-10 -10.2786 0.731801 -0.0259123 -2.87066e-09 3.51356e-09 -4.43427e-10 -2.22167 -0.733487 0.20892 -2.03217e-16 0.0 -3.88251e-19 -8.4298 -31.2314 9.54719 -0.0892447 23.7792 1.0527 -5.0916 -7.87271 -19.5441 2.03217e-16 0.0 3.88251e-19 -16.407 10.7681 -5.88759 -0.0993653 10.9761 -0.989316 1.11934 -6.42643 5.77056
24.7057 82.8424 -15.4313 -192.252 46.8922 -190.952 -14.8443 8.95047 -2.22132 1.72946 -5.40184 -0.869732 -10.8136 5.32162 -8.15438 16.2517 -8.66748 -12.4257 -0.0 0.0 0.0 -0.0 0.0 0.0 -9.13536e-15 -1.01094e-13 1.21603e-13 82.8817 21.6226 -5.44904 -11.6157 -5.18272 20.8687 -0.28997 15.145 2.18005 1.93078e-10 -1.72706e-09 6.64175e-10 3.43219e-10 -2.99426e-09 1.14315e-09 1.93078e-10 -1.72706e-09 6.64161e-10 7.73091 5.47488 0.417314 1.93078e-10 -1.72706e-09 6.64175e-10 2.90554 0.965183 0.102902 1.93083e-10 -1.72706e-09 6.64172e-10 10.2786 0.731801 0.0259123 1.93073e-10 -1.72706e-09 6.64175e-10 2.22167 -0.733487 -0.20892 -9.24972e-15 -1.01096e-13 1.21305e-13 -71.8278 32.0535 -12.0064 15.9338 -8.62637 -29.532 0.0454254 -6.07065 0.856414 2.54292e-10 8.07147e-10 -2.47877e-10 4.38415e-10 1.40005e-09 -4.25535e-10 2.54287e-10 8.07145e-10 -2.47872e-10 -7.73091 5.47488 -0.417314 2.54293e-10 8.07146e-10 -2.47874e-10 -2.90554 0.965183 -0.102902 2.54284e-10 8.07145e-10 -2.47878e-10 -10.2786 0.731801 -0.0259123 2.54298e-10 8.07149e-10 -2.47886e-10 -2.22167 -0.733487 0.20892 -2.03217e-16 0.0 -3.88251e-19 -8.7898 -31.0659 9.83259 -0.0835469 23.3987 1.06853 -5.15838 -8.11324 -19.4397 2.03217e-16 0.0 3.88251e-19 -16.0568 12.0961 -6.14984 -0.101707 10.4745 -0.992444 1.00328 -5.76217 5.29352
26.2959 82.6967 -16.392 -191.915 46.3362 -190.519 -14.774 8.59304 -2.42509 1.68057 -5.28978 -0.927618 -10.5518 5.39939 -8.25679 16.0696 -8.63102 -12.6972 -0.0 0.0 0.0 -0.0 0.0 0.0 -7.94593e-14 -2.58421e-13 -5.88303e-13 83.2931 21.2646 -6.11214 -11.5887 -5.16436 20.8167 -0.288207 15.1034 2.17373 4.74942e-09 -5.16588e-09 -1.81404e-09 8.18098e-09 -8.95787e-09 -3.20302e-09 4.74942e-09 -5.16588e-09 -1.81405e-09 7.73091 5.47488 0.417314 4.74942e-09 -5.16588e-09 -1.81404e-09 2.90554 0.965183 0.102902 4.74942e-09 -5.16588e-09 -1.81405e-09 10.2786 0.731801 0.0259123 4.74941e-09 -5.16588e-09 -1.81405e-09 2.22167 -0.733487 -0.20892 -7.96234e-14 -2.5842e-13 -5.88651e-13 -71.9777 32.4973 -11.9748 16.1683 -8.84464 -30.0289 0.0470662 -6.17963 0.871907 3.38288e-09 -1.93704e-09 -1.73426e-10 5.85012e-09 -3.34078e-09 -2.88041e-10 3.38288e-09 -1.93703e-09 -1.73423e-10 -7.73091 5.47488 -0.417314 3.38288e-09 -1.93704e-09 -1.73426e-10 -2.90554 0.965183 -0.102902 3.38287e-09 -1.93704e-09 -1.73429e-10 -10.2786 0.731801 -0.0259123 3.38289e-09 -1.93704e-09 -1.73436e-10 -2.22167 -0.733487 0.20892 -2.03217e-16 0.0 -3.88251e-19 -8.74774 -30.7561 10.0591 -0.0849465 23.6485 1.07119 -5.13807 -8.05467 -19.3958 2.03217e-16 0.0 3.88251e-19 -15.4967 13.0222 -6.24575 -0.100783 10.8196 -0.997782 0.951736 -5.3304 4.83685
28.071 82.5219 -17.4391 -191.582 46.0272 -190.309 -14.6923 8.21402 -2.552 1.77838 -5.22443 -0.970782 -10.5323 5.27935 -8.27112 15.8429 -8.1462 -12.7695 -0.0 0.0 0.0 -0.0 0.0 0.0 8.27818e-14 -1.53417e-14 -1.10577e-12 83.4645 21.3269 -6.83005 -11.5751 -5.15477 20.791 -0.295517 15.2875 2.20155 3.79108e-09 -6.19572e-09 -2.81836e-09 6.51004e-09 -1.07342e-08 -4.92445e-09 3.79108e-09 -6.19571e-09 -2.81837e-09 7.73091 5.47488 0.417314 3.79108e-09 -6.19571e-09 -2.81836e-09 2.90554 0.965183 0.102902 3.79109e-09 -6.19571e-09 -2.81836e-09 10.2786 0.731801 0.0259123 3.79108e-09 -6.19571e-09 -2.81837e-09 2.22167 -0.733487 -0.20892 8.26995e-14 -1.53461e-14 -1.10605e-12 -72.6176 32.5697 -11.4592 16.33 -8.99734 -30.3729 0.0502208 -6.3849 0.901105 2.88758e-09 -2.93157e-09 -7.87625e-10 4.99507e-09 -5.06288e-09 -1.3511e-09 2.88758e-09 -2.93157e-09 -7.87619e-10 -7.73091 5.47488 -0.417314 2.88758e-09 -2.93158e-09 -7.87626e-10 -2.90554 0.965183 -0.102902 2.88758e-09 -2.93158e-09 -7.87628e-10 -10.2786 0.731801 -0.0259123 2.88759e-09 -2.93157e-09 -7.87631e-10 -2.22167 -0.733487 0.20892 -2.03217e-16 0.0 -3.88251e-19 -8.44076 -30.0931 10.1161 -0.0862925 24.3861 1.09288 -5.0418 -7.47923 -19.7128 2.03217e-16 0.0 3.88251e-19 -14.8956 14.5478 -5.9138 -0.103287 10.4886 -1.00673 0.860432 -4.54448 4.55944
